<svg class="icon" viewBox="0 0 1706 1024" xmlns="http://www.w3.org/2000/svg" width="333.203" height="200"><defs><style/></defs><path d="M1450.667 768H1408v170.667h-170.667V896h-170.666v-42.667H597.333V896H426.667v42.667H256V768h170.667v-42.667H512v-42.666h42.667v-85.334H512V512h-85.333v-42.667H384V298.667h42.667v128h42.666v42.666H512V298.667h-85.333V256H512V128h42.667V85.333h42.666V128h128v42.667h85.334V128h42.666v42.667h85.334V128h128V85.333h42.666V128H1152v128h85.333v42.667H1152v170.666h42.667v-42.666h42.666v-128H1280v170.666h-42.667V512H1152v85.333h-42.667v85.334H1152v42.666h85.333V768H1408v-42.667h42.667V768zm-384-554.667h-128V256H896v42.667h-42.667v42.666h-42.666v-42.666H768V256h-42.667v-42.667h-128V256h-42.666v128h42.666v42.667H640v42.666h42.667V512H640v42.667h-42.667V640h85.334v42.667h298.666V640h85.334v-85.333H1024V512h-42.667v-42.667H1024v-42.666h42.667V384h42.666V256h-42.666v-42.667zM1024 42.667h42.667v42.666h-128V128h-85.334V85.333H896V42.667h-42.667v42.666h-42.666V42.667H768v42.666h42.667V128h-85.334V85.333h-128V42.667H640V0h384v42.667zM682.667 384h42.666v42.667h-42.666V384zm256 0h42.666v42.667h-42.666V384zM768 554.667h128v42.666H768v-42.666zM1322.667 512h42.666v42.667h-42.666V512zm42.666 42.667H1408v42.666h-42.667v-42.666zm85.334 0h42.666v42.666h-42.666v-42.666zM1408 597.333h42.667V640H1408v-42.667zm42.667 85.334h42.666v42.666h-42.666v-42.666zM1493.333 640H1536v42.667h-42.667V640zM1536 597.333h42.667V640H1536v-42.667zm-170.667-128H1408V512h-42.667v-42.667zm170.667 0h42.667V512H1536v-42.667zM1578.667 512h42.666v85.333h-42.666V512zM1408 426.667h128v42.666h-128v-42.666zM0 853.333h213.333V896H0v-42.667zm1450.667 0h256V896h-256v-42.667zm-867.556 128h213.333V1024H583.111v-42.667zm270.222-42.666H1024v42.666H853.333v-42.666z" fill="#b8b8b8"/></svg>